PathFileType	4	(X/Y/Z)	C:/Users/opensim2020/Desktop/walking_exp_matlab/subject06_walking12_straigt_01.trc																																																																																																																																														
DataRate	CameraRate	NumFrames	NumMarkers	Units	OrigDataRate	OrigDataStartFrame	OrigNumFrames																																																																																																																																										
100	100	4	48	mm	100	942	196																																																																																																																																										
Frame#	Time	LFHD			RFHD			LBHD			RBHD			C7			T10			CLAV			STRN			RBAK			LSHO			LUPA			LELB			LFRM			LWRA			LWRB			LFIN			RSHO			RUPA			RELB			RFRM			RWRA			RWRB			RFIN			LASI			RASI			LPSI			RPSI			LTHI			LKNE			LTIB			LANK			LHEE			LTOE			RTHI			RKNE			RTIB			RANK			RHEE			RTOE			*39			*40			*41			*42			*43			*44			*45			*46			*47		
		X1	Y1	Z1	X2	Y2	Z2	X3	Y3	Z3	X4	Y4	Z4	X5	Y5	Z5	X6	Y6	Z6	X7	Y7	Z7	X8	Y8	Z8	X9	Y9	Z9	X10	Y10	Z10	X11	Y11	Z11	X12	Y12	Z12	X13	Y13	Z13	X14	Y14	Z14	X15	Y15	Z15	X16	Y16	Z16	X17	Y17	Z17	X18	Y18	Z18	X19	Y19	Z19	X20	Y20	Z20	X21	Y21	Z21	X22	Y22	Z22	X23	Y23	Z23	X24	Y24	Z24	X25	Y25	Z25	X26	Y26	Z26	X27	Y27	Z27	X28	Y28	Z28	X29	Y29	Z29	X30	Y30	Z30	X31	Y31	Z31	X32	Y32	Z32	X33	Y33	Z33	X34	Y34	Z34	X35	Y35	Z35	X36	Y36	Z36	X37	Y37	Z37	X38	Y38	Z38	X39	Y39	Z39	X40	Y40	Z40	X41	Y41	Z41	X42	Y42	Z42	X43	Y43	Z43	X44	Y44	Z44	X45	Y45	Z45	X46	Y46	Z46	X47	Y47	Z47	X48	Y48	Z48
																																																																																																																																																	
148	1.47	632.60956	1637.73499	-1071.27991	616.35425	1618.26001	-941.88306	495.03488	1601.81543	-1091.02332	480.54727	1587.13672	-963.24951	469.66068	1433.27368	-1041.70618	433.80505	1102.11902	-1035.02563	579.17517	1352.46204	-1035.60657	617.07275	1177.37854	-1047.8429	391.3736	1257.9707	-972.47424	531.18542	1390.85693	-1198.03943	573.18976	1196.5	-1274.90137	606.55487	1089.17664	-1290.31445	717.42377	987.41119	-1297.8324	829.44812	944.39325	-1235.27063	796.73627	899.85834	-1278.98254	881.58551	872.10254	-1266.92285	521.64917	1382.08691	-877.00714	459.01398	1187.85901	-797.00519	456.77991	1065.9436	-783.58771	450.10321	946.27551	-762.80334	483.70993	796.34143	-783.49438	427.42194	809.82867	-750.03925	447.79337	727.61505	-742.90997	602.83502	936.01776	-1152.59119	618.8866	946.07745	-931.10583	447.60278	971.10901	-1111.43347	465.84439	972.19135	-943.10345	474.41144	633.2229	-1194.86401	428.47122	474.40536	-1170.604	287.29013	256.88852	-1155.30408	204.11794	106.32036	-1110.66846	159.36607	109.11502	-1066.86218	329.07779	33.7264	-1103.29675	629.81293	622.29608	-862.00012	679.00214	507.86099	-892.05688	732.2287	255.54495	-896.52362	795.25171	84.63287	-942.79059	765.07825	69.19328	-990.61884	956.37396	33.4675	-946.52191	531.82355	1685.276	-1020.58258	NaN	NaN	NaN	NaN	NaN	NaN	NaN	NaN	NaN	NaN	NaN	NaN	NaN	NaN	NaN	NaN	NaN	NaN	NaN	NaN	NaN	NaN	NaN	NaN
149	1.48	643.93988	1637.50256	-1069.48303	627.63177	1617.6698	-940.1759	506.54861	1601.01221	-1089.43042	492.06815	1586.02466	-961.69684	481.75351	1432.52551	-1040.21448	446.60373	1101.36292	-1033.87695	591.46008	1351.87244	-1034.42334	629.49811	1176.87366	-1047.03638	403.85419	1257.09912	-971.1637	543.35797	1390.63245	-1196.86279	584.31433	1195.91028	-1274.02197	616.90582	1088.44299	-1289.17078	727.33746	986.4151	-1295.78552	839.36328	943.61591	-1233.08667	807.10626	899.19867	-1277.21008	891.92371	871.50146	-1264.53345	534.15143	1381.17419	-875.70386	471.8978	1186.74963	-795.87598	469.90259	1064.80322	-782.70575	463.26489	945.10504	-761.97546	497.02747	795.16614	-783.01776	441.02213	808.63416	-749.39825	461.33817	726.40265	-742.44513	615.31134	935.3172	-1152.31702	631.94537	945.63257	-930.49713	460.55231	970.14032	-1110.57678	478.75613	971.7287	-942.336	486.12186	632.29724	-1194.33179	440.24936	473.547	-1169.98279	294.33771	259.06342	-1155.13086	207.30013	110.67462	-1110.99561	162.62137	114.77225	-1067.32788	329.74539	33.90528	-1103.10657	643.20001	622.74945	-861.4422	691.62274	508.25958	-892.16461	738.81757	252.98593	-897.3064	796.43927	80.62924	-943.82745	765.76788	62.43417	-989.69659	958.95569	32.62771	-948.33875	542.97461	1684.46802	-1018.85474	NaN	NaN	NaN	NaN	NaN	NaN	NaN	NaN	NaN	NaN	NaN	NaN	NaN	NaN	NaN	NaN	NaN	NaN	NaN	NaN	NaN	NaN	NaN	NaN
150	1.49	655.31415	1637.67505	-1067.73608	639.0957	1617.38037	-938.46552	518.13019	1600.32739	-1087.8374	503.6926	1584.99255	-960.1424	493.75183	1432.01611	-1038.72559	459.35287	1100.82178	-1032.83875	603.76379	1351.50342	-1033.19299	642.05933	1176.4967	-1046.17358	416.26447	1256.3656	-969.78918	555.5506	1390.23206	-1195.60144	595.17102	1195.13147	-1272.77112	627.14673	1087.41943	-1287.83228	737.69702	985.49237	-1294.63501	849.13391	942.41138	-1231.00122	817.07819	898.11371	-1275.44727	901.78955	870.33215	-1262.28076	546.75616	1380.34766	-874.28668	484.98331	1185.71619	-794.70868	483.15036	1063.71411	-781.7002	476.77026	943.95734	-761.18176	510.62338	794.14154	-782.48907	454.51154	807.39386	-748.86249	475.08261	725.28564	-741.93744	628.14661	934.66669	-1152.01721	645.20807	945.50928	-929.90302	473.04535	969.68274	-1109.84192	491.76724	971.5415	-941.59161	498.25189	631.43719	-1193.69397	452.37729	472.77139	-1169.25732	301.81	261.53912	-1154.96948	210.98965	115.34303	-1111.43262	166.52127	120.90046	-1067.86597	330.53659	34.12835	-1102.97693	657.03296	623.46527	-860.87189	704.47455	509.32111	-892.08832	744.84192	250.95796	-898.28113	795.92651	76.69245	-945.58673	764.83215	56.97028	-990.75659	959.84973	32.04061	-950.12317	554.04327	1683.89417	-1017.03632	NaN	NaN	NaN	NaN	NaN	NaN	NaN	NaN	NaN	NaN	NaN	NaN	NaN	NaN	NaN	NaN	NaN	NaN	NaN	NaN	NaN	NaN	NaN	NaN
151	1.5	666.7807	1637.96985	-1065.96826	650.55475	1617.30933	-936.67963	529.8363	1599.96167	-1086.20166	515.34534	1584.25439	-958.49615	505.9288	1431.74695	-1037.23206	472.38995	1100.41199	-1031.9845	616.06122	1351.3678	-1031.89551	654.67511	1176.44287	-1045.26294	428.76559	1255.75854	-968.35095	567.75922	1390.00562	-1194.35864	606.01526	1194.30273	-1271.34351	637.40143	1086.48413	-1286.59253	747.42993	984.19995	-1293.09753	858.47485	940.70758	-1229.09644	826.69116	896.68701	-1273.87134	911.23578	868.65344	-1260.27051	559.40399	1379.69421	-872.81189	498.27771	1184.74731	-793.46857	496.60043	1062.7572	-780.64856	490.45422	942.92059	-760.36969	524.42053	793.22382	-782.0282	468.60443	806.40564	-748.05701	489.32455	724.1958	-741.33478	641.23737	934.2074	-1151.68018	658.49402	945.77185	-929.20874	486.04495	969.24738	-1109.12207	504.92322	971.74396	-940.82727	510.90479	630.73022	-1192.83716	465.09827	472.10361	-1168.40576	309.99561	264.23892	-1154.65649	215.36621	120.42066	-1111.85107	171.15179	127.50083	-1068.42322	331.41238	34.33031	-1102.68872	671.21399	624.55963	-860.6333	717.44293	510.92661	-893.00891	751.1189	249.92252	-899.14276	795.13031	73.58498	-947.14331	763.37152	52.65667	-991.76898	959.53394	31.71497	-952.08276	565.19324	1683.51819	-1015.16425	NaN	NaN	NaN	NaN	NaN	NaN	NaN	NaN	NaN	NaN	NaN	NaN	NaN	NaN	NaN	NaN	NaN	NaN	NaN	NaN	NaN	NaN	NaN	NaN
